# Blender 5.0.1
# www.blender.org
mtllib pcscify1.mtl
o Cube.009
v -1.861482 0.050630 2.705797
v -1.847722 0.051180 2.708137
v -1.834672 0.051471 2.713109
v -1.822833 0.051490 2.720521
v -1.812660 0.051238 2.730090
v -1.804543 0.050723 2.741447
v -1.798796 0.049966 2.754156
v -1.795639 0.048995 2.767728
v -1.795193 0.047848 2.781642
v -1.797475 0.046569 2.795363
v -1.802398 0.045208 2.808364
v -1.809772 0.043815 2.820146
v -1.819314 0.042446 2.830255
v -1.830657 0.041153 2.838302
v -1.843366 0.039984 2.843980
v -1.856952 0.038986 2.847069
v -1.870893 0.038196 2.847451
v -1.884653 0.037646 2.845111
v -1.897703 0.037355 2.840139
v -1.909543 0.037336 2.832727
v -1.919716 0.037588 2.823158
v -1.927832 0.038103 2.811801
v -1.933579 0.038861 2.799092
v -1.936736 0.039831 2.785520
v -1.937183 0.040978 2.771606
v -1.934900 0.042257 2.757885
v -1.929978 0.043619 2.744884
v -1.922604 0.045011 2.733102
v -1.913061 0.046380 2.722994
v -1.901718 0.047674 2.714946
v -1.889009 0.048842 2.709268
v -1.875423 0.049840 2.706179
v -2.150805 -0.005927 3.018583
v -2.152136 0.018580 3.020645
v -2.115805 0.040315 2.491743
v -2.117136 0.064821 2.493806
v -1.622717 0.019624 3.055908
v -1.624048 0.044131 3.057971
v -1.587717 0.065866 2.529069
v -1.589048 0.090373 2.531132
v -2.144585 0.002291 2.924958
v -2.145916 0.026797 2.927020
v -1.616497 0.027842 2.962283
v -1.617828 0.052348 2.964346
v -2.119898 0.061173 2.535377
v -1.590479 0.062217 2.570640
v -2.118567 0.036666 2.533314
v -1.591810 0.086724 2.572703
v -1.936475 0.048992 2.504418
v -1.937806 0.073498 2.506481
v -1.971475 0.002750 3.031258
v -1.972806 0.027256 3.033320
v -1.965255 0.010967 2.937633
v -1.939237 0.045343 2.545990
v -1.685067 0.085727 2.524345
v -1.718736 0.014978 3.049122
v -1.683736 0.061220 2.522282
v -1.720067 0.039485 3.051184
v -1.712516 0.023196 2.955497
v -1.686497 0.057571 2.563853
v -1.712454 0.049543 2.936587
v -1.734869 0.046686 2.956073
v -1.715241 0.045862 2.978531
v -1.692826 0.048720 2.959045
v -1.719596 0.047944 2.950981
v -1.713847 0.047703 2.957559
v -1.720412 0.046866 2.963266
v -1.708098 0.047461 2.964137
v -1.707282 0.048540 2.951852
v -1.686436 0.083919 2.544944
v -1.708851 0.081061 2.564430
v -1.689222 0.080237 2.586888
v -1.666807 0.083095 2.567402
v -1.693578 0.082319 2.559338
v -1.687829 0.082078 2.565916
v -1.694394 0.081241 2.571623
v -1.682080 0.081837 2.572494
v -1.681264 0.082915 2.560209
v -1.967750 0.033936 2.957214
v -1.949026 0.036324 2.940937
v -1.965423 0.037012 2.922176
v -1.984147 0.034624 2.938454
v -1.961784 0.035273 2.945190
v -1.966587 0.035474 2.939695
v -1.961102 0.036173 2.934927
v -1.971389 0.035676 2.934201
v -1.972071 0.034775 2.944463
v -1.941732 0.068312 2.565571
v -1.923007 0.070699 2.549293
v -1.939404 0.071387 2.530533
v -1.958129 0.069000 2.546811
v -1.935766 0.069648 2.553547
v -1.940568 0.069849 2.548052
v -1.935084 0.070549 2.543284
v -1.945371 0.070051 2.542557
v -1.946052 0.069150 2.552820
v -1.591810 0.086724 2.572703
v -1.617828 0.052348 2.964346
v -1.616497 0.027842 2.962283
v -2.145916 0.026797 2.927020
v -2.119898 0.061173 2.535377
v -1.590479 0.062217 2.570640
v -1.707282 0.048540 2.951852
v -1.712454 0.049543 2.936587
v -1.692826 0.048720 2.959045
v -1.689222 0.080237 2.586888
v -1.682080 0.081837 2.572494
v -1.666807 0.083095 2.567402
v -1.965423 0.037012 2.922176
v -1.971389 0.035676 2.934201
v -1.984147 0.034624 2.938454
v -1.946052 0.069150 2.552820
v -1.941732 0.068312 2.565571
v -1.958129 0.069000 2.546811
v -1.591353 0.078316 2.571995
v -1.617372 0.043941 2.963638
v -2.145460 0.018389 2.926312
v -2.119441 0.052765 2.534669
v -1.706825 0.040132 2.951144
v -1.711997 0.041136 2.935879
v -1.692369 0.040312 2.958337
v -1.688765 0.071829 2.586180
v -1.681623 0.073429 2.571786
v -1.666350 0.074687 2.566694
v -1.964966 0.028604 2.921468
v -1.970932 0.027268 2.933493
v -1.983691 0.026217 2.937747
v -1.945596 0.060742 2.552112
v -1.941275 0.059904 2.564863
v -1.957672 0.060592 2.546103
v -1.930529 0.053757 2.745737
v -1.923154 0.055149 2.733956
v -1.835223 0.061610 2.713962
v -1.848273 0.061319 2.708990
v -1.935451 0.052396 2.758738
v -1.813210 0.061377 2.730943
v -1.831208 0.051291 2.839156
v -1.843917 0.050123 2.844833
v -1.805094 0.060862 2.742300
v -1.857503 0.049125 2.847922
v -1.898254 0.047494 2.840993
v -1.937733 0.051117 2.772460
v -1.889560 0.058981 2.710121
v -1.910094 0.047474 2.833580
v -1.798026 0.056708 2.796216
v -1.819865 0.052585 2.831108
v -1.802948 0.055346 2.809218
v -1.795744 0.057987 2.782495
v -1.913612 0.056519 2.723847
v -1.902269 0.057812 2.715799
v -1.871444 0.048335 2.848304
v -1.862033 0.060768 2.706650
v -1.796190 0.059134 2.768581
v -1.823384 0.061629 2.721375
v -1.799347 0.060104 2.755009
v -1.934130 0.048999 2.799946
v -1.928383 0.048242 2.812654
v -1.937287 0.049970 2.786373
v -1.920267 0.047727 2.824011
v -1.885204 0.047784 2.845964
v -1.810323 0.053954 2.820999
v -1.875974 0.059979 2.707032
v -1.862675 0.052596 2.711969
v -1.862991 0.058415 2.712459
v -1.850124 0.053098 2.714103
v -1.850441 0.058918 2.714593
v -1.838221 0.053363 2.718638
v -1.838537 0.059183 2.719128
v -1.827422 0.053381 2.725399
v -1.827738 0.059200 2.725889
v -1.818143 0.053150 2.734127
v -1.818459 0.058970 2.734617
v -1.810740 0.052681 2.744486
v -1.811056 0.058500 2.744976
v -1.805498 0.051990 2.756078
v -1.805814 0.057810 2.756568
v -1.802618 0.051105 2.768457
v -1.802935 0.056924 2.768947
v -1.802211 0.050059 2.781149
v -1.802528 0.055878 2.781638
v -1.804293 0.048892 2.793664
v -1.804609 0.054712 2.794154
v -1.808783 0.047650 2.805523
v -1.809099 0.053470 2.806012
v -1.815509 0.046380 2.816269
v -1.815825 0.052200 2.816758
v -1.824213 0.045131 2.825489
v -1.824529 0.050951 2.825979
v -1.834559 0.043951 2.832830
v -1.834875 0.049771 2.833319
v -1.846151 0.042886 2.838008
v -1.846467 0.048705 2.838498
v -1.858543 0.041975 2.840826
v -1.858859 0.047795 2.841316
v -1.871259 0.041255 2.841174
v -1.871575 0.047075 2.841664
v -1.883810 0.040753 2.839040
v -1.884126 0.046572 2.839530
v -1.895713 0.040488 2.834505
v -1.896029 0.046307 2.834995
v -1.906512 0.040470 2.827744
v -1.906828 0.046290 2.828234
v -1.915791 0.040700 2.819016
v -1.916107 0.046520 2.819506
v -1.923194 0.041170 2.808657
v -1.923510 0.046990 2.809147
v -1.928436 0.041861 2.797065
v -1.928752 0.047680 2.797555
v -1.931316 0.042746 2.784686
v -1.931632 0.048566 2.785176
v -1.931723 0.043792 2.771995
v -1.932039 0.049612 2.772485
v -1.929641 0.044959 2.759479
v -1.929957 0.050778 2.759969
v -1.925151 0.046201 2.747621
v -1.925467 0.052020 2.748111
v -1.918425 0.047471 2.736875
v -1.918741 0.053290 2.737365
v -1.909721 0.048719 2.727654
v -1.910038 0.054539 2.728144
v -1.899375 0.049899 2.720314
v -1.899691 0.055719 2.720803
v -1.887783 0.050965 2.715135
v -1.888099 0.056785 2.715625
v -1.875391 0.051876 2.712317
v -1.875707 0.057695 2.712807
v -1.872305 0.051176 2.792455
v -1.871989 0.045357 2.791966
v -1.871439 0.051241 2.792253
v -1.871122 0.045421 2.791763
v -1.863128 0.054249 2.761870
v -1.862812 0.048430 2.761380
v -1.880980 0.052667 2.769143
v -1.880664 0.046848 2.768654
v -1.874014 0.051119 2.792036
v -1.873698 0.045299 2.791546
v -1.873192 0.051135 2.792381
v -1.872876 0.045315 2.791891
v -1.862262 0.054313 2.761667
v -1.861946 0.048494 2.761178
v -1.882661 0.052412 2.771095
v -1.882345 0.046592 2.770605
v -1.874691 0.051131 2.791455
v -1.874375 0.045312 2.790965
v -1.882319 0.052499 2.770276
v -1.882003 0.046680 2.769786
v -1.852041 0.053218 2.781277
v -1.851725 0.047399 2.780788
v -1.875155 0.051170 2.790694
v -1.874839 0.045350 2.790205
v -1.851835 0.053157 2.782143
v -1.851518 0.047337 2.781653
v -1.853586 0.052823 2.784980
v -1.853270 0.047003 2.784490
v -1.852826 0.052903 2.784520
v -1.852510 0.047083 2.784030
v -1.851905 0.053078 2.783028
v -1.851589 0.047259 2.782538
v -1.852247 0.052991 2.783847
v -1.851931 0.047171 2.783357
v -1.859411 0.054320 2.763428
v -1.859095 0.048501 2.762938
v -1.881740 0.052587 2.769603
v -1.881424 0.046768 2.769114
v -1.882525 0.052272 2.772846
v -1.882209 0.046452 2.772356
v -1.882732 0.052333 2.771980
v -1.882416 0.046514 2.771490
v -1.861374 0.054355 2.761742
v -1.861058 0.048536 2.761253
v -1.859875 0.054359 2.762668
v -1.859559 0.048539 2.762178
v -1.860552 0.054371 2.762087
v -1.860236 0.048551 2.761597
v -1.883247 0.049169 2.809246
v -1.882931 0.043349 2.808756
v -1.891329 0.051723 2.773678
v -1.891013 0.045904 2.773188
v -1.912907 0.050148 2.778468
v -1.912591 0.044328 2.777979
v -1.900994 0.047873 2.813186
v -1.900678 0.042053 2.812696
v -1.905694 0.047868 2.810209
v -1.905378 0.042049 2.809720
v -1.902220 0.047800 2.813261
v -1.901904 0.041981 2.812771
v -1.904452 0.047760 2.812296
v -1.904135 0.041940 2.811806
v -1.905238 0.047797 2.811350
v -1.904922 0.041977 2.810860
v -1.903412 0.047761 2.812955
v -1.903096 0.041942 2.812465
vn -0.1634 -0.0916 0.9823
vn -0.3524 -0.0975 0.9308
vn -0.5279 -0.0997 0.8434
vn -0.6831 -0.0980 0.7237
vn -0.8121 -0.0926 0.5761
vn -0.9098 -0.0836 0.4065
vn -0.9726 -0.0715 0.2212
vn -0.9980 -0.0565 0.0273
vn -0.9851 -0.0394 -0.1675
vn -0.9343 -0.0208 -0.3559
vn -0.8476 -0.0014 -0.5307
vn -0.7283 0.0181 -0.6850
vn -0.5810 0.0369 -0.8130
vn -0.4114 0.0542 -0.9098
vn -0.2260 0.0695 -0.9716
vn -0.0319 0.0821 -0.9961
vn 0.1634 0.0916 -0.9823
vn 0.3524 0.0975 -0.9308
vn 0.5279 0.0997 -0.8434
vn 0.6831 0.0980 -0.7237
vn 0.8121 0.0926 -0.5761
vn 0.9098 0.0836 -0.4065
vn 0.9726 0.0715 -0.2212
vn 0.9980 0.0565 -0.0273
vn 0.9851 0.0394 0.1675
vn 0.9343 0.0208 0.3559
vn 0.8476 0.0014 0.5307
vn 0.7283 -0.0181 0.6850
vn 0.5810 -0.0369 0.8130
vn 0.4114 -0.0542 0.9098
vn 0.2260 -0.0695 0.9716
vn 0.0319 -0.0821 0.9961
vn -0.0541 0.9950 0.0837
vn -0.9964 -0.0482 -0.0704
vn 0.0660 0.0872 -0.9940
vn 0.9964 0.0482 0.0704
vn -0.0660 -0.0872 0.9940
vn 0.0541 -0.9950 -0.0837
vn 0.8952 0.0112 0.4454
vn -0.4423 -0.0991 0.8914
vn 0.3203 -0.0622 0.9453
vn -0.8952 -0.0112 -0.4454
vn 0.9458 0.0779 -0.3153
vn -0.3203 0.0622 -0.9453
vn 0.4423 0.0991 -0.8914
vn -0.9458 -0.0779 0.3153
vn 0.0795 0.0879 -0.9929
vn -0.2319 0.0691 -0.9703
vn 0.3832 0.0981 -0.9184
vn 0.9230 0.0818 -0.3760
vn -0.5207 0.0435 -0.8526
vn -0.9712 -0.0719 0.2271
vn 0.6494 0.0987 -0.7540
vn -0.3832 -0.0981 0.9184
vn 0.5207 -0.0435 0.8526
vn 0.8520 0.0897 -0.5158
vn -0.8520 -0.0897 0.5158
vn -0.9221 -0.0176 -0.3866
vn 0.9712 0.0719 -0.2271
vn 0.7585 -0.0136 0.6515
vn 0.2319 -0.0691 0.9703
vn -0.0795 -0.0879 0.9929
vn -0.3810 0.0570 -0.9228
vn -0.7585 0.0136 -0.6515
vn -0.6494 -0.0987 0.7540
vn 0.9954 0.0470 0.0839
vn -0.9230 -0.0818 0.3760
vn 0.9221 0.0176 0.3866
vn 0.3810 -0.0570 0.9228
vn -0.9954 -0.0470 -0.0839
vn 0.5323 0.0997 -0.8407
vn 0.2211 -0.0699 0.9728
vn 0.9272 0.0812 -0.3657
vn -0.0660 0.0801 -0.9946
vn 0.2451 0.0945 -0.9649
vn -0.9738 -0.0711 0.2162
vn 0.7673 0.0951 -0.6343
vn -0.2211 0.0699 -0.9728
vn 0.9738 0.0711 -0.2162
vt 1.000000 0.500000
vt 0.968750 0.500000
vt 0.968750 0.535750
vt 1.000000 0.535750
vt 0.937500 0.500000
vt 0.937500 0.535750
vt 0.906250 0.500000
vt 0.906250 0.535750
vt 0.875000 0.500000
vt 0.875000 0.535750
vt 0.843750 0.500000
vt 0.843750 0.535750
vt 0.812500 0.500000
vt 0.812500 0.535750
vt 0.781250 0.500000
vt 0.781250 0.535750
vt 0.750000 0.500000
vt 0.750000 0.535750
vt 0.718750 0.500000
vt 0.718750 0.535750
vt 0.687500 0.500000
vt 0.687500 0.535750
vt 0.656250 0.500000
vt 0.656250 0.535750
vt 0.625000 0.500000
vt 0.625000 0.535750
vt 0.593750 0.500000
vt 0.593750 0.535750
vt 0.562500 0.500000
vt 0.562500 0.535750
vt 0.531250 0.500000
vt 0.531250 0.535750
vt 0.500000 0.500000
vt 0.500000 0.535750
vt 0.468750 0.500000
vt 0.468750 0.535750
vt 0.437500 0.500000
vt 0.437500 0.535750
vt 0.406250 0.500000
vt 0.406250 0.535750
vt 0.375000 0.500000
vt 0.375000 0.535750
vt 0.343750 0.500000
vt 0.343750 0.535750
vt 0.312500 0.500000
vt 0.312500 0.535750
vt 0.281250 0.500000
vt 0.281250 0.535750
vt 0.250000 0.500000
vt 0.250000 0.535750
vt 0.218750 0.500000
vt 0.218750 0.535750
vt 0.187500 0.500000
vt 0.187500 0.535750
vt 0.156250 0.500000
vt 0.156250 0.535750
vt 0.125000 0.500000
vt 0.125000 0.535750
vt 0.093750 0.500000
vt 0.093750 0.535750
vt 0.062500 0.500000
vt 0.062500 0.535750
vt 0.031250 0.500000
vt 0.031250 0.535750
vt 0.000000 0.500000
vt 0.000000 0.535750
vt 0.750000 0.490000
vt 0.703178 0.485388
vt 0.658156 0.471731
vt 0.616663 0.449553
vt 0.580294 0.419706
vt 0.550447 0.383337
vt 0.528269 0.341844
vt 0.514612 0.296822
vt 0.510000 0.250000
vt 0.514612 0.203178
vt 0.528269 0.158156
vt 0.550447 0.116663
vt 0.580294 0.080294
vt 0.616663 0.050447
vt 0.658156 0.028269
vt 0.703178 0.014612
vt 0.750000 0.010000
vt 0.796822 0.014612
vt 0.841844 0.028269
vt 0.883337 0.050447
vt 0.919706 0.080294
vt 0.949553 0.116663
vt 0.971731 0.158156
vt 0.985388 0.203178
vt 0.990000 0.250000
vt 0.985388 0.296822
vt 0.971731 0.341844
vt 0.949553 0.383337
vt 0.919706 0.419706
vt 0.883337 0.449553
vt 0.841844 0.471731
vt 0.796822 0.485388
vt 0.375000 0.230273
vt 0.625000 0.230273
vt 0.625000 0.250000
vt 0.375000 0.250000
vt 0.375000 0.454544
vt 0.625000 0.454544
vt 0.375000 0.705572
vt 0.625000 0.705572
vt 0.625000 0.750000
vt 0.375000 0.750000
vt 0.375000 0.915104
vt 0.625000 0.915104
vt 0.625000 1.000000
vt 0.375000 1.000000
vt 0.329544 0.705572
vt 0.329544 0.750000
vt 0.790104 0.500000
vt 0.875000 0.519727
vt 0.798418 0.519727
vt 0.792539 0.517292
vt 0.790104 0.511413
vt 0.670456 0.715524
vt 0.673371 0.708487
vt 0.680408 0.705572
vt 0.781791 0.705572
vt 0.787669 0.708007
vt 0.790104 0.713886
vt 0.790104 0.750000
vt 0.670456 0.750000
vt 0.329544 0.519727
vt 0.375000 0.519727
vt 0.790104 0.697259
vt 0.790104 0.528040
vt 0.375000 0.000000
vt 0.625000 0.000000
vt 0.625000 0.044428
vt 0.375000 0.044428
vt 0.625000 0.519727
vt 0.329544 0.500000
vt 0.670456 0.500000
vt 0.787669 0.517292
vt 0.781791 0.519727
vt 0.680408 0.519727
vt 0.673371 0.516812
vt 0.670456 0.509775
vt 0.125000 0.519727
vt 0.125000 0.705572
vt 0.875000 0.705572
vt 0.209896 0.500000
vt 0.209896 0.519727
vt 0.209896 0.705572
vt 0.667541 0.516812
vt 0.660504 0.519727
vt 0.660504 0.705572
vt 0.667541 0.708487
vt 0.209896 0.750000
vt 0.125000 0.750000
vt 0.375000 0.795456
vt 0.625000 0.795456
vt 0.625000 0.334896
vt 0.375000 0.334896
vt 0.792539 0.708007
vt 0.798417 0.705572
vt 0.875000 0.750000
vt 0.670456 0.529678
vt 0.673371 0.522641
vt 0.787669 0.522161
vt 0.781744 0.625622
vt 0.781098 0.619065
vt 0.779185 0.612760
vt 0.776080 0.606950
vt 0.771900 0.601856
vt 0.766807 0.597677
vt 0.760996 0.594571
vt 0.754691 0.592658
vt 0.748134 0.592012
vt 0.741578 0.592658
vt 0.735273 0.594571
vt 0.729462 0.597677
vt 0.724369 0.601857
vt 0.720189 0.606950
vt 0.717083 0.612760
vt 0.715171 0.619065
vt 0.714525 0.625622
vt 0.670456 0.695620
vt 0.673371 0.702657
vt 0.670456 0.705572
vt 0.667541 0.702657
vt 0.670456 0.519727
vt 0.667541 0.522641
vt 0.790104 0.705572
vt 0.787669 0.703137
vt 0.792539 0.703137
vt 0.790104 0.519727
vt 0.792539 0.522162
vt 0.798417 0.519727
vt 0.798418 0.705572
vt 0.715171 0.632179
vt 0.717083 0.638484
vt 0.720189 0.644294
vt 0.724369 0.649387
vt 0.729462 0.653567
vt 0.735273 0.656673
vt 0.741578 0.658585
vt 0.748134 0.659231
vt 0.754691 0.658585
vt 0.760996 0.656673
vt 0.766807 0.653567
vt 0.771900 0.649387
vt 0.776079 0.644294
vt 0.779185 0.638484
vt 0.781098 0.632179
vt 1.000000 1.000000
vt 0.968750 1.000000
vt 0.937500 1.000000
vt 0.906250 1.000000
vt 0.875000 1.000000
vt 0.843750 1.000000
vt 0.812500 1.000000
vt 0.781250 1.000000
vt 0.750000 1.000000
vt 0.718750 1.000000
vt 0.687500 1.000000
vt 0.656250 1.000000
vt 0.593750 1.000000
vt 0.562500 1.000000
vt 0.531250 1.000000
vt 0.500000 1.000000
vt 0.468750 1.000000
vt 0.437500 1.000000
vt 0.406250 1.000000
vt 0.343750 1.000000
vt 0.312500 1.000000
vt 0.281250 1.000000
vt 0.250000 1.000000
vt 0.218750 1.000000
vt 0.187500 1.000000
vt 0.156250 1.000000
vt 0.125000 1.000000
vt 0.093750 1.000000
vt 0.062500 1.000000
vt 0.296822 0.485388
vt 0.250000 0.490000
vt 0.203178 0.485388
vt 0.158156 0.471731
vt 0.116663 0.449553
vt 0.080294 0.419706
vt 0.050447 0.383337
vt 0.028269 0.341844
vt 0.014612 0.296822
vt 0.191766 0.264751
vt 0.191811 0.268044
vt 0.192871 0.271162
vt 0.194842 0.273799
vt 0.197532 0.275698
vt 0.261606 0.307259
vt 0.264751 0.308234
vt 0.268044 0.308189
vt 0.271162 0.307129
vt 0.273799 0.305158
vt 0.275699 0.302468
vt 0.307259 0.238394
vt 0.308234 0.235249
vt 0.485388 0.203178
vt 0.490000 0.250000
vt 0.485388 0.296822
vt 0.471731 0.341844
vt 0.449553 0.383337
vt 0.419706 0.419706
vt 0.383337 0.449553
vt 0.341844 0.471731
vt 0.031250 1.000000
vt 0.000000 1.000000
vt 0.808234 0.235249
vt 0.807259 0.238394
vt 0.775699 0.302468
vt 0.773799 0.305158
vt 0.771162 0.307129
vt 0.768044 0.308189
vt 0.764751 0.308234
vt 0.761606 0.307259
vt 0.697532 0.275698
vt 0.694842 0.273799
vt 0.692871 0.271162
vt 0.691811 0.268044
vt 0.691766 0.264751
vt 0.470806 1.000000
vt 0.529194 1.000000
vt 0.529194 0.980339
vt 0.470806 0.980339
vt 0.529194 0.971546
vt 0.470806 0.971546
vt 0.470806 0.011729
vt 0.529194 0.011729
vt 0.529194 0.000000
vt 0.470806 0.000000
vt 0.470806 0.221546
vt 0.529194 0.221546
vt 0.529194 0.028454
vt 0.470806 0.028454
vt 0.308190 0.231956
vt 0.307130 0.228838
vt 0.305158 0.226201
vt 0.302468 0.224302
vt 0.238394 0.192741
vt 0.235249 0.191766
vt 0.231956 0.191811
vt 0.228839 0.192871
vt 0.226201 0.194842
vt 0.224302 0.197532
vt 0.192741 0.261606
vt 0.010000 0.250000
vt 0.014612 0.203178
vt 0.082041 0.232874
vt 0.160466 0.256227
vt 0.198999 0.126822
vt 0.449553 0.116663
vt 0.471731 0.158156
vt 0.529194 0.769661
vt 0.470806 0.769661
vt 0.470806 0.778454
vt 0.529194 0.778454
vt 0.529194 0.721546
vt 0.470806 0.721546
vt 0.470806 0.730339
vt 0.529194 0.730339
vt 0.470806 0.019661
vt 0.529194 0.019661
vt 0.529194 0.488271
vt 0.470806 0.488271
vt 0.470806 0.511729
vt 0.529194 0.511729
vt 0.529194 0.269661
vt 0.470806 0.269661
vt 0.470806 0.278454
vt 0.529194 0.278454
vt 0.529194 0.519661
vt 0.470806 0.519661
vt 0.470806 0.528454
vt 0.529194 0.528454
vt 0.529194 0.738271
vt 0.470806 0.738271
vt 0.470806 0.761729
vt 0.529194 0.761729
vt 0.470806 0.230339
vt 0.529194 0.230339
vt 0.529194 0.261729
vt 0.470806 0.261729
vt 0.692741 0.261606
vt 0.724302 0.197532
vt 0.726201 0.194842
vt 0.728839 0.192871
vt 0.731956 0.191811
vt 0.735249 0.191766
vt 0.738394 0.192741
vt 0.802468 0.224302
vt 0.805158 0.226201
vt 0.807130 0.228838
vt 0.808190 0.231956
vt 0.698999 0.126822
vt 0.660466 0.256227
vt 0.582041 0.232874
vt 0.529194 0.471546
vt 0.470806 0.471546
vt 0.470806 0.480339
vt 0.529194 0.480339
vt 0.470806 0.238271
vt 0.529194 0.238271
vt 0.467008 0.011088
vt 0.532992 0.011088
vt 0.532992 0.000000
vt 0.467008 0.000000
vt 0.616428 0.117392
vt 0.618391 0.113292
vt 0.621524 0.110000
vt 0.625521 0.107837
vt 0.629992 0.107015
vt 0.634497 0.107615
vt 0.467008 0.500000
vt 0.532992 0.500000
vt 0.532992 0.250000
vt 0.467008 0.250000
vt 0.134497 0.107615
vt 0.129992 0.107015
vt 0.125521 0.107837
vt 0.121524 0.110000
vt 0.118391 0.113292
vt 0.116428 0.117392
vt 0.028269 0.158156
vt 0.050447 0.116663
vt 0.080294 0.080294
vt 0.116663 0.050447
vt 0.158156 0.028269
vt 0.203178 0.014612
vt 0.250000 0.010000
vt 0.296822 0.014612
vt 0.341844 0.028269
vt 0.383337 0.050447
vt 0.419706 0.080294
vt 0.467008 0.026898
vt 0.532992 0.026898
vt 0.532992 0.018586
vt 0.467008 0.018586
vt 0.467008 0.969331
vt 0.532992 0.969331
vt 0.532992 0.955617
vt 0.467008 0.955617
vt 0.467008 1.000000
vt 0.532992 1.000000
vt 0.467008 0.750000
vt 0.532992 0.750000
s 0
usemtl Teclas._a_arelas
f 1/1/1 2/2/1 134/3/1 152/4/1
f 2/2/2 3/5/2 133/6/2 134/3/2
f 3/5/3 4/7/3 154/8/3 133/6/3
f 4/7/4 5/9/4 136/10/4 154/8/4
f 5/9/5 6/11/5 139/12/5 136/10/5
f 6/11/6 7/13/6 155/14/6 139/12/6
f 7/13/7 8/15/7 153/16/7 155/14/7
f 8/15/8 9/17/8 148/18/8 153/16/8
f 9/17/9 10/19/9 145/20/9 148/18/9
f 10/19/10 11/21/10 147/22/10 145/20/10
f 11/21/11 12/23/11 161/24/11 147/22/11
f 12/23/12 13/25/12 146/26/12 161/24/12
f 13/25/13 14/27/13 137/28/13 146/26/13
f 14/27/14 15/29/14 138/30/14 137/28/14
f 15/29/15 16/31/15 140/32/15 138/30/15
f 16/31/16 17/33/16 151/34/16 140/32/16
f 17/33/17 18/35/17 160/36/17 151/34/17
f 18/35/18 19/37/18 141/38/18 160/36/18
f 19/37/19 20/39/19 144/40/19 141/38/19
f 20/39/20 21/41/20 159/42/20 144/40/20
f 21/41/21 22/43/21 157/44/21 159/42/21
f 22/43/22 23/45/22 156/46/22 157/44/22
f 23/45/23 24/47/23 158/48/23 156/46/23
f 24/47/24 25/49/24 142/50/24 158/48/24
f 25/49/25 26/51/25 135/52/25 142/50/25
f 26/51/26 27/53/26 131/54/26 135/52/26
f 27/53/27 28/55/27 132/56/27 131/54/27
f 28/55/28 29/57/28 149/58/28 132/56/28
f 29/57/29 30/59/29 150/60/29 149/58/29
f 30/59/30 31/61/30 143/62/30 150/60/30
f 31/61/31 32/63/31 162/64/31 143/62/31
f 32/63/32 1/65/32 152/66/32 162/64/32
f 1/67/33 32/68/33 31/69/33 30/70/33 29/71/33 28/72/33 27/73/33 26/74/33 25/75/33 24/76/33 23/77/33 22/78/33 21/79/33 20/80/33 19/81/33 18/82/33 17/83/33 16/84/33 15/85/33 14/86/33 13/87/33 12/88/33 11/89/33 10/90/33 9/91/33 8/92/33 7/93/33 6/94/33 5/95/33 4/96/33 3/97/33 2/98/33
f 47/99/34 45/100/34 36/101/34 35/102/34
f 57/103/35 55/104/35 40/25/35 39/41/35
f 43/105/36 44/106/36 38/107/36 37/108/36
f 51/109/37 52/110/37 34/111/37 33/112/37
f 59/113/38 43/105/38 37/108/38 56/114/38
f 50/115/33 36/9/33 45/116/33 91/117/33 95/118/33 90/119/33
f 63/120/33 67/121/33 62/122/33 80/123/33 83/124/33 79/125/33 52/126/33 58/127/33
f 60/128/38 46/129/38 43/105/38 59/113/38
f 81/130/33 88/131/33 113/131/33 109/130/33
f 33/132/34 34/133/34 42/134/34 41/135/34
f 39/41/36 40/25/36 48/136/36 46/129/36
f 57/137/38 39/41/38 46/129/38 60/128/38
f 55/138/33 50/115/33 90/119/33 94/139/33 89/140/33 71/141/33 74/142/33 70/143/33
f 47/144/34 41/145/34 117/146/34 118/116/34
f 35/57/38 49/147/38 54/148/38 47/144/38
f 47/144/38 54/148/38 53/149/38 41/145/38
f 40/25/33 55/138/33 70/143/33 78/150/33 73/151/33 48/136/33
f 44/106/33 64/152/33 68/153/33 63/120/33 58/127/33 38/107/33
f 41/145/38 53/149/38 51/154/38 33/155/38
f 56/156/37 58/157/37 52/110/37 51/109/37
f 35/102/35 36/101/35 50/158/35 49/159/35
f 37/108/37 38/107/37 58/157/37 56/156/37
f 79/125/33 87/160/33 82/161/33 42/146/33 34/162/33 52/126/33
f 72/163/33 76/164/33 71/141/33 89/140/33 92/165/33 88/131/33 81/130/33 142/166/33 135/167/33 131/168/33 132/169/33 149/170/33 150/171/33 143/172/33 162/173/33 152/174/33 134/175/33 133/176/33 154/177/33 136/178/33 139/179/33 155/180/33 153/181/33 148/182/33 61/183/33
f 49/147/38 57/137/38 60/128/38 54/148/38
f 54/148/38 60/128/38 59/113/38 53/149/38
f 53/149/38 59/113/38 56/114/38 51/154/38
f 49/159/35 50/158/35 55/104/35 57/103/35
f 61/183/33 65/184/33 66/185/33 69/186/33
f 62/122/33 67/121/33 66/185/33 65/184/33
f 63/120/33 68/153/33 66/185/33 67/121/33
f 64/152/33 69/186/33 66/185/33 68/153/33
f 70/143/33 74/142/33 75/187/33 78/150/33
f 71/141/33 76/164/33 75/187/33 74/142/33
f 72/163/33 77/188/33 75/187/33 76/164/33
f 73/151/33 78/150/33 75/187/33 77/188/33
f 45/100/33 42/134/33 100/134/33 101/100/33
f 79/125/33 83/124/33 84/189/33 87/160/33
f 80/123/33 85/190/33 84/189/33 83/124/33
f 81/130/33 86/191/33 84/189/33 85/190/33
f 82/161/33 87/160/33 84/189/33 86/191/33
f 88/131/33 92/165/33 93/192/33 96/193/33
f 89/140/33 94/139/33 93/192/33 92/165/33
f 90/119/33 95/118/33 93/192/33 94/139/33
f 91/117/33 96/193/33 93/192/33 95/118/33
f 96/193/33 91/117/33 114/194/33 112/193/33
f 116/106/36 99/105/36 102/129/36 115/136/36
f 107/188/39 106/163/39 122/163/39 123/188/39
f 43/105/33 46/129/33 102/129/33 99/105/33
f 48/136/33 73/151/33 108/151/33 97/136/33
f 82/161/33 86/191/33 110/191/33 111/161/33
f 91/117/33 45/116/33 101/116/33 114/194/33
f 72/163/33 61/183/33 104/183/33 106/163/33
f 42/146/33 82/161/33 111/161/33 100/146/33
f 69/186/33 64/152/33 105/152/33 103/186/33
f 64/152/33 44/106/33 98/106/33 105/152/33
f 88/131/33 96/193/33 112/193/33 113/131/33
f 46/129/33 48/136/33 97/136/33 102/129/33
f 77/188/33 72/163/33 106/163/33 107/188/33
f 44/106/33 43/105/33 99/105/33 98/106/33
f 73/151/33 77/188/33 107/188/33 108/151/33
f 86/191/33 81/130/33 109/130/33 110/191/33
f 61/183/33 69/186/33 103/186/33 104/183/33
f 115/136/33 124/151/33 123/188/33 122/163/33 120/183/33 119/186/33 121/152/33 116/106/33
f 112/193/40 114/194/40 130/194/40 128/193/40
f 108/151/41 107/188/41 123/188/41 124/151/41
f 109/130/34 113/131/34 129/131/34 125/130/34
f 97/136/37 108/151/37 124/151/37 115/136/37
f 114/194/37 101/116/37 118/116/37 130/194/37
f 106/163/36 104/183/36 120/183/36 122/163/36
f 100/146/35 111/161/35 127/195/35 117/146/35
f 105/152/35 98/106/35 116/106/35 121/152/35
f 110/191/42 109/130/42 125/130/42 126/191/42
f 104/183/43 103/186/43 119/186/43 120/183/43
f 111/161/44 110/191/44 126/191/44 127/195/44
f 103/186/45 105/152/45 121/152/45 119/186/45
f 113/131/46 112/193/46 128/193/46 129/131/46
f 61/183/33 148/182/33 145/196/33 147/197/33 161/198/33 146/199/33 137/200/33 138/201/33 140/202/33 151/203/33 160/204/33 141/205/33 144/206/33 159/207/33 157/208/33 156/209/33 158/210/33 142/166/33 81/130/33 85/190/33 80/123/33 62/122/33 65/184/33
usemtl disquete
f 129/131/33 128/193/33 130/194/33 118/116/33 117/146/33 127/195/33 126/191/33 125/130/33
f 163/1/17 164/211/17 166/212/17 165/2/17
f 165/2/18 166/212/18 168/213/18 167/5/18
f 167/5/19 168/213/19 170/214/19 169/7/19
f 169/7/20 170/214/20 172/215/20 171/9/20
f 171/9/21 172/215/21 174/216/21 173/11/21
f 173/11/22 174/216/22 176/217/22 175/13/22
f 175/13/23 176/217/23 178/218/23 177/15/23
f 177/15/24 178/218/24 180/219/24 179/17/24
f 179/17/25 180/219/25 182/220/25 181/19/25
f 181/19/26 182/220/26 184/221/26 183/21/26
f 183/21/27 184/221/27 186/222/27 185/23/27
f 185/23/28 186/222/28 188/111/28 187/25/28
f 187/25/29 188/111/29 190/223/29 189/27/29
f 189/27/30 190/223/30 192/224/30 191/29/30
f 191/29/31 192/224/31 194/225/31 193/31/31
f 193/31/32 194/225/32 196/226/32 195/33/32
f 195/33/1 196/226/1 198/227/1 197/35/1
f 197/35/2 198/227/2 200/228/2 199/37/2
f 199/37/3 200/228/3 202/229/3 201/39/3
f 201/39/4 202/229/4 204/112/4 203/41/4
f 203/41/5 204/112/5 206/230/5 205/43/5
f 205/43/6 206/230/6 208/231/6 207/45/6
f 207/45/7 208/231/7 210/232/7 209/47/7
f 209/47/8 210/232/8 212/233/8 211/49/8
f 211/49/9 212/233/9 214/234/9 213/51/9
f 213/51/10 214/234/10 216/235/10 215/53/10
f 215/53/11 216/235/11 218/236/11 217/55/11
f 217/55/12 218/236/12 220/237/12 219/57/12
f 219/57/13 220/237/13 222/238/13 221/59/13
f 221/59/14 222/238/14 224/239/14 223/61/14
f 166/240/33 164/241/33 226/242/33 224/243/33 222/244/33 220/245/33 218/246/33 216/247/33 214/248/33 267/249/33 241/250/33 245/251/33 263/252/33 233/253/33 231/254/33 239/255/33 269/256/33 273/257/33 271/258/33 261/259/33 247/260/33 251/261/33 182/262/33 180/263/33 178/264/33 176/265/33 174/266/33 172/267/33 170/268/33 168/269/33
f 223/61/15 224/239/15 226/270/15 225/63/15
f 225/63/16 226/270/16 164/271/16 163/65/16
f 163/67/38 165/98/38 167/97/38 169/96/38 171/95/38 173/94/38 175/93/38 177/92/38 179/91/38 181/90/38 252/272/38 248/273/38 262/274/38 272/275/38 274/276/38 270/277/38 240/278/38 232/279/38 234/280/38 264/281/38 246/282/38 242/283/38 268/284/38 213/74/38 215/73/38 217/72/38 219/71/38 221/70/38 223/69/38 225/68/38
f 238/285/47 237/286/47 227/287/47 228/288/47
f 228/288/48 227/287/48 229/289/48 230/290/48
f 236/291/49 235/292/49 237/293/49 238/294/49
f 266/295/50 265/296/50 249/297/50 250/298/50
f 182/262/33 251/261/33 257/299/33 259/300/33 255/301/33 253/302/33 229/303/33 227/304/33 237/305/33 235/306/33 243/307/33 249/308/33 265/309/33 267/249/33 214/248/33 212/310/33 210/311/33 279/312/33 277/313/33 275/314/33 186/315/33 184/316/33
f 255/317/51 256/318/51 254/319/51 253/320/51
f 247/321/52 248/322/52 252/323/52 251/324/52
f 244/325/53 243/326/53 235/292/53 236/291/53
f 269/327/54 270/328/54 274/329/54 273/330/54
f 263/331/55 264/332/55 234/333/55 233/334/55
f 250/298/56 249/297/56 243/326/56 244/325/56
f 271/335/57 272/336/57 262/337/57 261/338/57
f 257/339/58 258/340/58 260/341/58 259/342/58
f 265/296/59 266/295/59 268/343/59 267/344/59
f 245/345/60 246/346/60 264/332/60 263/331/60
f 213/74/38 268/284/38 266/347/38 250/348/38 244/349/38 236/350/38 238/351/38 228/352/38 230/353/38 254/354/38 256/355/38 260/356/38 258/357/38 252/272/38 181/90/38 183/89/38 185/88/38 276/358/38 278/359/38 280/360/38 209/76/38 211/75/38
f 231/361/61 232/362/61 240/363/61 239/364/61
f 239/364/62 240/363/62 270/328/62 269/327/62
f 230/290/63 229/289/63 253/320/63 254/319/63
f 259/342/64 260/341/64 256/318/64 255/317/64
f 273/330/65 274/329/65 272/336/65 271/335/65
f 267/344/66 268/343/66 242/365/66 241/366/66
f 248/322/67 247/321/67 261/338/67 262/337/67
f 241/366/68 242/365/68 246/346/68 245/345/68
f 232/362/69 231/361/69 233/334/69 234/333/69
f 251/324/70 252/323/70 258/340/70 257/339/70
f 288/367/71 287/368/71 291/369/71 292/370/71
f 209/76/38 280/360/38 284/371/38 290/372/38 288/373/38 292/374/38 286/375/38 282/376/38 276/358/38 185/88/38 187/87/38 189/86/38 191/85/38 193/84/38 195/83/38 197/82/38 199/81/38 201/80/38 203/79/38 205/78/38 207/77/38
f 278/377/72 277/378/72 279/379/72 280/380/72
f 186/315/33 275/314/33 281/381/33 285/382/33 291/383/33 287/384/33 289/385/33 283/386/33 279/312/33 210/311/33 208/387/33 206/388/33 204/389/33 202/390/33 200/391/33 198/392/33 196/393/33 194/394/33 192/395/33 190/396/33 188/397/33
f 284/398/73 283/399/73 289/400/73 290/401/73
f 286/402/74 285/403/74 281/404/74 282/405/74
f 292/406/75 291/407/75 285/403/75 286/402/75
f 276/408/76 275/409/76 277/378/76 278/377/76
f 290/401/77 289/400/77 287/368/77 288/367/77
f 282/405/78 281/404/78 275/409/78 276/408/78
f 280/380/79 279/379/79 283/399/79 284/398/79
